<svg width="36.000000" height="36.000000" viewBox="0 0 36 36" fill="none" xmlns="http://www.w3.org/2000/svg" xmlns:xlink="http://www.w3.org/1999/xlink">
	<desc>
			Created with Pixso.
	</desc>
	<defs/>
	<rect id="Icon" rx="0.000000" width="35.000000" height="35.000000" transform="translate(0.500000 0.500000)" fill="#FFFFFF" fill-opacity="0"/>
	<path id="Combined Shape" d="M35.6226 22.2396C35.3938 22.1487 35.1326 22.2056 34.9626 22.3835L32.4001 25.0769L32.4001 9.07898L32.4031 9.07898L34.8481 6.43915C34.9548 6.32385 35.0075 6.1778 35.0075 6.0321C35.0075 5.87061 34.9427 5.70959 34.8148 5.59137L34.8143 5.59082L33.9343 4.77185L35.1571 3.4519C35.2635 3.33661 35.3162 3.19073 35.3162 3.04517C35.3162 2.88367 35.2513 2.7226 35.1233 2.60437L32.4833 0.159546C32.2402 -0.0653687 31.8606 -0.0507812 31.6357 0.192505L27.3697 4.79846L6.60004 4.79846C6.59811 3.1424 5.25613 1.80054 3.59995 1.79858L3.00009 1.79858C1.3439 1.80054 0.00192261 3.1424 0 4.79846L0 30.5966C0 30.9278 0.268616 31.1964 0.600128 31.1964L9.6828 31.1964L8.42267 32.7094C8.32947 32.8215 8.284 32.9576 8.284 33.0928C8.284 33.2649 8.35757 33.4356 8.50012 33.5541L11.2668 35.8575C11.5214 36.0696 11.8998 36.035 12.1119 35.7804L12.1122 35.7801L15.1831 32.0909C15.3951 31.8354 15.5316 31.5254 15.5767 31.1964L26.571 31.1964L22.965 34.9828C22.8546 35.0989 22.7999 35.2476 22.7999 35.3961C22.7999 35.5547 22.8624 35.713 22.9864 35.8309C23.0979 35.9369 23.246 35.9962 23.4001 35.996L35.3999 35.996C35.7314 35.996 36 35.7274 36 35.3962L36 22.7971C36 22.5516 35.8506 22.3308 35.6226 22.2396ZM33.8683 3.07593L32.107 1.44653L31.2915 2.32727L33.0532 3.95837L33.8683 3.07593ZM3.60034 2.99854L3.00049 2.99854C2.00623 2.99854 1.20038 3.80432 1.20038 4.79846L1.20038 27.6124C1.71674 27.2153 2.349 26.9988 3.00049 26.9966L3.60034 26.9966C4.25156 26.9988 4.88409 27.2153 5.40045 27.6124L5.40045 4.79846C5.40045 3.80432 4.5946 2.99854 3.60034 2.99854ZM31.2 5.96002L31.2 5.95148L31.2071 5.95148L32.2385 4.83807L30.4763 3.20782L24.3635 9.81342L26.1257 11.4437L31.2 5.96002ZM32.3998 7.31287L33.5597 6.05835L33.1197 5.65045L32.3998 6.43048L32.3998 7.31287ZM14.9515 29.5563C15.099 29.6818 15.225 29.8304 15.3247 29.9966L27.7143 29.9966L31.2003 26.3367L31.2003 7.72675L26.6006 12.6974C26.5489 12.7504 26.4879 12.7935 26.4207 12.824C26.4044 12.832 26.3888 12.8397 26.3737 12.8452C26.3589 12.8503 26.3457 12.8594 26.33 12.8644L22.9698 13.8434C22.8756 13.8709 22.7759 13.8748 22.6795 13.8547C22.3964 13.7958 22.2018 13.5462 22.2018 13.268C22.2018 13.2275 22.2059 13.1863 22.2145 13.1451L22.9308 9.72058C22.9352 9.70135 22.9443 9.68323 22.9501 9.66541C22.9561 9.64728 22.9616 9.63104 22.9688 9.61377C22.9937 9.54974 23.03 9.49042 23.0756 9.43909L26.2597 5.99841L6.60022 5.99841L6.60022 29.9966L10.6803 29.9966L11.4944 29.0205C12.1305 28.2565 13.2654 28.1529 14.0294 28.789L14.9515 29.5563ZM17.3997 9.59814L18.6 9.59814L18.6 10.798L17.3997 10.798L17.3997 9.59814ZM23.593 12.4136L24.9732 12.011L23.8877 11.0061L23.593 12.4136ZM26.3999 22.7971L22.2001 22.7971L22.2001 16.1975C22.1992 16.0382 22.1358 15.8856 22.0235 15.7726L18.4235 12.173C18.1892 11.9387 17.8094 11.9387 17.5751 12.173L13.9752 15.7726C13.8634 15.8858 13.8005 16.0385 13.7999 16.1975L13.7999 22.7971L9.60013 22.7971C9.26862 22.7971 9 23.0657 9 23.3969C9 23.7284 9.26862 23.9969 9.60013 23.9969L26.4001 23.9969C26.7314 23.9969 27 23.7284 27 23.3969C27 23.0657 26.7314 22.7971 26.3999 22.7971ZM20.1521 15.5975L18.0004 13.446L15.8488 15.5975L20.1521 15.5975ZM14.9999 16.7974L21.0001 16.7974L21.0001 22.7972L14.9999 22.7972L14.9999 16.7974ZM24.7997 34.796L34.8 34.796L34.8 24.2968L24.7997 34.796ZM18.6 25.1969L17.3997 25.1969L17.3997 26.3968L18.6 26.3968L18.6 25.1969ZM3.60034 28.1966L3.00049 28.1966C2.00623 28.1966 1.20038 29.0027 1.20038 29.9966L5.40045 29.9966C5.40045 29.0027 4.5946 28.1966 3.60034 28.1966ZM28.246 33.226C28.3388 33.4501 28.5577 33.5962 28.8005 33.5962L33.0003 33.5962C33.3318 33.5962 33.6005 33.3276 33.6005 32.9963L33.6005 28.7966C33.6005 28.4651 33.3315 28.1968 33.0003 28.1968C32.8413 28.1968 32.6886 28.2599 32.5762 28.3726L28.3762 32.572C28.2045 32.7437 28.1532 33.0018 28.246 33.226ZM13.8771 31.7844L14.2611 31.3235L14.2611 31.3218L14.2616 31.3213C14.3547 31.2092 14.4002 31.0733 14.4002 30.9382C14.4002 30.7661 14.3264 30.5952 14.1836 30.4765L13.2616 29.7108L13.261 29.7106C13.0064 29.4985 12.6282 29.5331 12.4162 29.7877L12.0328 30.2491L13.8771 31.7844ZM32.4003 32.3962L32.4003 30.2448L30.2486 32.3962L32.4003 32.3962ZM9.72949 33.0162L11.5741 34.5514L13.1094 32.7067L11.2651 31.1711L9.72949 33.0162Z" clip-rule="evenodd" fill="#000000" fill-opacity="1.000000" fill-rule="evenodd"/>
</svg>
